<svg xmlns="http://www.w3.org/2000/svg" xmlns:xlink="http://www.w3.org/1999/xlink" width="800" zoomAndPan="magnify" viewBox="0 0 600 599.999999" height="800" preserveAspectRatio="xMidYMid meet" version="1.0"><defs><g/></defs><rect x="-60" width="720" fill="#ffffff" y="-60" height="719.999999" fill-opacity="1"/><rect x="-60" width="720" fill="#ffffff" y="-60" height="719.999999" fill-opacity="1"/><rect x="-60" width="720" fill="#f2f2f2" y="-60" height="719.999999" fill-opacity="1"/><g fill="#000000" fill-opacity="1"><g transform="translate(145.315372, 279.750008)"><g><path d="M 73.65625 -73.71875 L 48.234375 -73.71875 L 48.234375 0 L 27.28125 0 L 27.28125 -73.71875 L 1.859375 -73.71875 L 1.859375 -90.328125 L 73.65625 -90.328125 Z M 73.65625 -73.71875 "/></g></g></g><g fill="#000000" fill-opacity="1"><g transform="translate(220.828945, 279.750008)"><g><path d="M 39.6875 -26.15625 C 35.832031 -26 32.664062 -25.671875 30.1875 -25.171875 C 27.707031 -24.671875 25.742188 -24.050781 24.296875 -23.3125 C 22.859375 -22.570312 21.859375 -21.722656 21.296875 -20.765625 C 20.734375 -19.816406 20.453125 -18.785156 20.453125 -17.671875 C 20.453125 -15.484375 21.050781 -13.941406 22.25 -13.046875 C 23.457031 -12.160156 25.21875 -11.71875 27.53125 -11.71875 C 30.007812 -11.71875 32.175781 -12.148438 34.03125 -13.015625 C 35.894531 -13.890625 37.78125 -15.296875 39.6875 -17.234375 Z M 5.078125 -55.359375 C 8.960938 -58.796875 13.269531 -61.347656 18 -63.015625 C 22.738281 -64.691406 27.816406 -65.53125 33.234375 -65.53125 C 37.117188 -65.53125 40.617188 -64.898438 43.734375 -63.640625 C 46.859375 -62.378906 49.503906 -60.625 51.671875 -58.375 C 53.847656 -56.125 55.515625 -53.445312 56.671875 -50.34375 C 57.828125 -47.238281 58.40625 -43.847656 58.40625 -40.171875 L 58.40625 0 L 49.59375 0 C 47.78125 0 46.40625 -0.242188 45.46875 -0.734375 C 44.539062 -1.234375 43.769531 -2.269531 43.15625 -3.84375 L 41.78125 -7.375 C 40.175781 -6.007812 38.628906 -4.8125 37.140625 -3.78125 C 35.648438 -2.75 34.109375 -1.867188 32.515625 -1.140625 C 30.921875 -0.421875 29.222656 0.109375 27.421875 0.453125 C 25.628906 0.804688 23.640625 0.984375 21.453125 0.984375 C 18.515625 0.984375 15.847656 0.601562 13.453125 -0.15625 C 11.054688 -0.914062 9.019531 -2.039062 7.34375 -3.53125 C 5.675781 -5.019531 4.382812 -6.867188 3.46875 -9.078125 C 2.5625 -11.296875 2.109375 -13.847656 2.109375 -16.734375 C 2.109375 -19.054688 2.6875 -21.40625 3.84375 -23.78125 C 5 -26.15625 7.003906 -28.320312 9.859375 -30.28125 C 12.710938 -32.25 16.554688 -33.894531 21.390625 -35.21875 C 26.222656 -36.539062 32.320312 -37.285156 39.6875 -37.453125 L 39.6875 -40.171875 C 39.6875 -43.929688 38.910156 -46.648438 37.359375 -48.328125 C 35.804688 -50.003906 33.601562 -50.84375 30.75 -50.84375 C 28.476562 -50.84375 26.617188 -50.59375 25.171875 -50.09375 C 23.722656 -49.601562 22.429688 -49.046875 21.296875 -48.421875 C 20.160156 -47.796875 19.054688 -47.234375 17.984375 -46.734375 C 16.910156 -46.242188 15.628906 -46 14.140625 -46 C 12.816406 -46 11.695312 -46.328125 10.78125 -46.984375 C 9.875 -47.648438 9.132812 -48.441406 8.5625 -49.359375 Z M 5.078125 -55.359375 "/></g></g></g><g fill="#000000" fill-opacity="1"><g transform="translate(284.996881, 279.750008)"><g><path d="M 47.375 -50.21875 C 46.875 -49.4375 46.34375 -48.878906 45.78125 -48.546875 C 45.226562 -48.210938 44.515625 -48.046875 43.640625 -48.046875 C 42.734375 -48.046875 41.828125 -48.242188 40.921875 -48.640625 C 40.015625 -49.035156 39.03125 -49.457031 37.96875 -49.90625 C 36.914062 -50.363281 35.726562 -50.785156 34.40625 -51.171875 C 33.082031 -51.566406 31.578125 -51.765625 29.890625 -51.765625 C 27.441406 -51.765625 25.566406 -51.300781 24.265625 -50.375 C 22.960938 -49.445312 22.3125 -48.15625 22.3125 -46.5 C 22.3125 -45.300781 22.734375 -44.304688 23.578125 -43.515625 C 24.429688 -42.734375 25.5625 -42.039062 26.96875 -41.4375 C 28.375 -40.84375 29.960938 -40.273438 31.734375 -39.734375 C 33.515625 -39.203125 35.332031 -38.601562 37.1875 -37.9375 C 39.050781 -37.28125 40.875 -36.503906 42.65625 -35.609375 C 44.4375 -34.722656 46.023438 -33.628906 47.421875 -32.328125 C 48.828125 -31.023438 49.953125 -29.441406 50.796875 -27.578125 C 51.648438 -25.722656 52.078125 -23.492188 52.078125 -20.890625 C 52.078125 -17.710938 51.5 -14.78125 50.34375 -12.09375 C 49.1875 -9.40625 47.457031 -7.085938 45.15625 -5.140625 C 42.863281 -3.203125 40.035156 -1.695312 36.671875 -0.625 C 33.304688 0.445312 29.429688 0.984375 25.046875 0.984375 C 22.859375 0.984375 20.664062 0.773438 18.46875 0.359375 C 16.28125 -0.046875 14.160156 -0.597656 12.109375 -1.296875 C 10.066406 -2.003906 8.175781 -2.84375 6.4375 -3.8125 C 4.707031 -4.78125 3.222656 -5.820312 1.984375 -6.9375 L 6.453125 -14.015625 C 6.941406 -14.835938 7.566406 -15.484375 8.328125 -15.953125 C 9.097656 -16.429688 10.082031 -16.671875 11.28125 -16.671875 C 12.394531 -16.671875 13.394531 -16.421875 14.28125 -15.921875 C 15.175781 -15.429688 16.140625 -14.894531 17.171875 -14.3125 C 18.203125 -13.738281 19.410156 -13.203125 20.796875 -12.703125 C 22.179688 -12.210938 23.929688 -11.96875 26.046875 -11.96875 C 27.523438 -11.96875 28.78125 -12.117188 29.8125 -12.421875 C 30.851562 -12.734375 31.679688 -13.160156 32.296875 -13.703125 C 32.921875 -14.242188 33.375 -14.84375 33.65625 -15.5 C 33.945312 -16.15625 34.09375 -16.835938 34.09375 -17.546875 C 34.09375 -18.828125 33.660156 -19.878906 32.796875 -20.703125 C 31.929688 -21.535156 30.796875 -22.25 29.390625 -22.84375 C 27.984375 -23.445312 26.378906 -24.003906 24.578125 -24.515625 C 22.785156 -25.035156 20.957031 -25.625 19.09375 -26.28125 C 17.238281 -26.945312 15.410156 -27.742188 13.609375 -28.671875 C 11.804688 -29.597656 10.203125 -30.773438 8.796875 -32.203125 C 7.398438 -33.628906 6.265625 -35.375 5.390625 -37.4375 C 4.523438 -39.507812 4.09375 -42.015625 4.09375 -44.953125 C 4.09375 -47.679688 4.617188 -50.273438 5.671875 -52.734375 C 6.722656 -55.191406 8.300781 -57.347656 10.40625 -59.203125 C 12.519531 -61.066406 15.164062 -62.546875 18.34375 -63.640625 C 21.53125 -64.734375 25.253906 -65.28125 29.515625 -65.28125 C 31.828125 -65.28125 34.066406 -65.070312 36.234375 -64.65625 C 38.410156 -64.25 40.445312 -63.671875 42.34375 -62.921875 C 44.25 -62.179688 45.984375 -61.304688 47.546875 -60.296875 C 49.117188 -59.285156 50.503906 -58.179688 51.703125 -56.984375 Z M 47.375 -50.21875 "/></g></g></g><g fill="#000000" fill-opacity="1"><g transform="translate(340.237109, 279.750008)"><g><path d="M 29.515625 0.984375 C 26.453125 0.984375 23.753906 0.539062 21.421875 -0.34375 C 19.085938 -1.226562 17.125 -2.488281 15.53125 -4.125 C 13.9375 -5.757812 12.722656 -7.734375 11.890625 -10.046875 C 11.066406 -12.359375 10.65625 -14.941406 10.65625 -17.796875 L 10.65625 -51.03125 L 5.203125 -51.03125 C 4.210938 -51.03125 3.363281 -51.347656 2.65625 -51.984375 C 1.957031 -52.628906 1.609375 -53.570312 1.609375 -54.8125 L 1.609375 -62.3125 L 11.84375 -64.296875 L 15.625 -79.984375 C 16.125 -81.960938 17.53125 -82.953125 19.84375 -82.953125 L 29.890625 -82.953125 L 29.890625 -64.171875 L 45.8125 -64.171875 L 45.8125 -51.03125 L 29.890625 -51.03125 L 29.890625 -19.09375 C 29.890625 -17.601562 30.25 -16.375 30.96875 -15.40625 C 31.6875 -14.4375 32.726562 -13.953125 34.09375 -13.953125 C 34.800781 -13.953125 35.390625 -14.023438 35.859375 -14.171875 C 36.335938 -14.316406 36.753906 -14.476562 37.109375 -14.65625 C 37.460938 -14.84375 37.789062 -15.007812 38.09375 -15.15625 C 38.40625 -15.300781 38.769531 -15.375 39.1875 -15.375 C 39.757812 -15.375 40.222656 -15.238281 40.578125 -14.96875 C 40.929688 -14.695312 41.289062 -14.273438 41.65625 -13.703125 L 47.484375 -4.59375 C 45.003906 -2.726562 42.210938 -1.332031 39.109375 -0.40625 C 36.015625 0.519531 32.816406 0.984375 29.515625 0.984375 Z M 29.515625 0.984375 "/></g></g></g><g fill="#000000" fill-opacity="1"><g transform="translate(387.851579, 279.750008)"><g><path d="M 46.5 -39.859375 C 46.5 -41.390625 46.300781 -42.878906 45.90625 -44.328125 C 45.519531 -45.773438 44.878906 -47.066406 43.984375 -48.203125 C 43.097656 -49.335938 41.929688 -50.253906 40.484375 -50.953125 C 39.035156 -51.660156 37.28125 -52.015625 35.21875 -52.015625 C 31.582031 -52.015625 28.726562 -50.96875 26.65625 -48.875 C 24.59375 -46.789062 23.226562 -43.785156 22.5625 -39.859375 Z M 22.3125 -28.703125 C 22.9375 -23.328125 24.570312 -19.429688 27.21875 -17.015625 C 29.863281 -14.597656 33.273438 -13.390625 37.453125 -13.390625 C 39.679688 -13.390625 41.597656 -13.65625 43.203125 -14.1875 C 44.816406 -14.726562 46.253906 -15.328125 47.515625 -15.984375 C 48.773438 -16.648438 49.929688 -17.25 50.984375 -17.78125 C 52.046875 -18.320312 53.15625 -18.59375 54.3125 -18.59375 C 55.84375 -18.59375 57 -18.035156 57.78125 -16.921875 L 63.359375 -10.046875 C 61.378906 -7.773438 59.238281 -5.925781 56.9375 -4.5 C 54.644531 -3.070312 52.289062 -1.953125 49.875 -1.140625 C 47.457031 -0.335938 45.039062 0.210938 42.625 0.515625 C 40.207031 0.828125 37.90625 0.984375 35.71875 0.984375 C 31.207031 0.984375 26.976562 0.253906 23.03125 -1.203125 C 19.082031 -2.671875 15.628906 -4.851562 12.671875 -7.75 C 9.722656 -10.644531 7.390625 -14.238281 5.671875 -18.53125 C 3.953125 -22.832031 3.09375 -27.835938 3.09375 -33.546875 C 3.09375 -37.835938 3.828125 -41.90625 5.296875 -45.75 C 6.765625 -49.59375 8.875 -52.960938 11.625 -55.859375 C 14.375 -58.753906 17.703125 -61.046875 21.609375 -62.734375 C 25.515625 -64.429688 29.925781 -65.28125 34.84375 -65.28125 C 39.101562 -65.28125 43 -64.617188 46.53125 -63.296875 C 50.0625 -61.972656 53.097656 -60.050781 55.640625 -57.53125 C 58.179688 -55.007812 60.164062 -51.921875 61.59375 -48.265625 C 63.019531 -44.609375 63.734375 -40.46875 63.734375 -35.84375 C 63.734375 -34.394531 63.671875 -33.210938 63.546875 -32.296875 C 63.421875 -31.390625 63.191406 -30.664062 62.859375 -30.125 C 62.535156 -29.59375 62.09375 -29.222656 61.53125 -29.015625 C 60.976562 -28.804688 60.265625 -28.703125 59.390625 -28.703125 Z M 22.3125 -28.703125 "/></g></g></g><g fill="#63c4bc" fill-opacity="1"><g transform="translate(133.936466, 414.750002)"><g><path d="M 29.515625 -40.046875 C 27.242188 -38.148438 25.628906 -36.113281 24.671875 -33.9375 C 23.722656 -31.769531 23.25 -29.46875 23.25 -27.03125 C 23.25 -25.050781 23.546875 -23.253906 24.140625 -21.640625 C 24.742188 -20.023438 25.601562 -18.640625 26.71875 -17.484375 C 27.832031 -16.328125 29.164062 -15.425781 30.71875 -14.78125 C 32.269531 -14.144531 33.992188 -13.828125 35.890625 -13.828125 C 38.660156 -13.828125 41.242188 -14.1875 43.640625 -14.90625 C 46.046875 -15.632812 48.28125 -16.660156 50.34375 -17.984375 Z M 91.328125 0 L 72.359375 0 C 71.398438 0 70.550781 -0.0507812 69.8125 -0.15625 C 69.070312 -0.257812 68.378906 -0.429688 67.734375 -0.671875 C 67.097656 -0.921875 66.488281 -1.273438 65.90625 -1.734375 C 65.320312 -2.191406 64.703125 -2.769531 64.046875 -3.46875 L 60.140625 -7.5625 C 56.210938 -4.832031 51.921875 -2.722656 47.265625 -1.234375 C 42.617188 0.242188 37.671875 0.984375 32.421875 0.984375 C 28.828125 0.984375 25.300781 0.363281 21.84375 -0.875 C 18.394531 -2.113281 15.328125 -3.878906 12.640625 -6.171875 C 9.960938 -8.460938 7.796875 -11.238281 6.140625 -14.5 C 4.484375 -17.769531 3.65625 -21.429688 3.65625 -25.484375 C 3.65625 -28.210938 4.078125 -30.796875 4.921875 -33.234375 C 5.773438 -35.671875 6.972656 -37.929688 8.515625 -40.015625 C 10.066406 -42.109375 11.894531 -44.007812 14 -45.71875 C 16.113281 -47.4375 18.453125 -48.9375 21.015625 -50.21875 C 19.035156 -53.238281 17.609375 -56.191406 16.734375 -59.078125 C 15.867188 -61.972656 15.4375 -64.785156 15.4375 -67.515625 C 15.4375 -70.742188 16.023438 -73.789062 17.203125 -76.65625 C 18.378906 -79.53125 20.09375 -82.050781 22.34375 -84.21875 C 24.601562 -86.394531 27.375 -88.125 30.65625 -89.40625 C 33.945312 -90.6875 37.71875 -91.328125 41.96875 -91.328125 C 45.976562 -91.328125 49.507812 -90.738281 52.5625 -89.5625 C 55.625 -88.382812 58.207031 -86.832031 60.3125 -84.90625 C 62.425781 -82.988281 64.082031 -80.769531 65.28125 -78.25 C 66.476562 -75.726562 67.222656 -73.144531 67.515625 -70.5 L 55.125 -68.015625 C 52.925781 -67.515625 51.3125 -68.382812 50.28125 -70.625 C 49.332031 -72.769531 48.226562 -74.398438 46.96875 -75.515625 C 45.707031 -76.628906 44.039062 -77.1875 41.96875 -77.1875 C 40.519531 -77.1875 39.257812 -76.914062 38.1875 -76.375 C 37.113281 -75.84375 36.210938 -75.140625 35.484375 -74.265625 C 34.765625 -73.398438 34.21875 -72.390625 33.84375 -71.234375 C 33.476562 -70.078125 33.296875 -68.878906 33.296875 -67.640625 C 33.296875 -66.566406 33.390625 -65.539062 33.578125 -64.5625 C 33.765625 -63.59375 34.082031 -62.601562 34.53125 -61.59375 C 34.988281 -60.582031 35.597656 -59.539062 36.359375 -58.46875 C 37.128906 -57.394531 38.09375 -56.21875 39.25 -54.9375 L 61.5625 -31.4375 C 62.675781 -33.875 63.582031 -36.445312 64.28125 -39.15625 C 64.988281 -41.863281 65.445312 -44.640625 65.65625 -47.484375 C 65.78125 -48.648438 66.171875 -49.5625 66.828125 -50.21875 C 67.492188 -50.882812 68.382812 -51.21875 69.5 -51.21875 L 81.65625 -51.21875 C 81.65625 -45.21875 80.847656 -39.59375 79.234375 -34.34375 C 77.617188 -29.09375 75.347656 -24.300781 72.421875 -19.96875 Z M 91.328125 0 "/></g></g></g><g fill="#000000" fill-opacity="1"><g transform="translate(224.885681, 414.750002)"><g><path d="M 73.65625 -73.71875 L 48.234375 -73.71875 L 48.234375 0 L 27.28125 0 L 27.28125 -73.71875 L 1.859375 -73.71875 L 1.859375 -90.328125 L 73.65625 -90.328125 Z M 73.65625 -73.71875 "/></g></g></g><g fill="#000000" fill-opacity="1"><g transform="translate(300.399254, 414.750002)"><g><path d="M 39.6875 -26.15625 C 35.832031 -26 32.664062 -25.671875 30.1875 -25.171875 C 27.707031 -24.671875 25.742188 -24.050781 24.296875 -23.3125 C 22.859375 -22.570312 21.859375 -21.722656 21.296875 -20.765625 C 20.734375 -19.816406 20.453125 -18.785156 20.453125 -17.671875 C 20.453125 -15.484375 21.050781 -13.941406 22.25 -13.046875 C 23.457031 -12.160156 25.21875 -11.71875 27.53125 -11.71875 C 30.007812 -11.71875 32.175781 -12.148438 34.03125 -13.015625 C 35.894531 -13.890625 37.78125 -15.296875 39.6875 -17.234375 Z M 5.078125 -55.359375 C 8.960938 -58.796875 13.269531 -61.347656 18 -63.015625 C 22.738281 -64.691406 27.816406 -65.53125 33.234375 -65.53125 C 37.117188 -65.53125 40.617188 -64.898438 43.734375 -63.640625 C 46.859375 -62.378906 49.503906 -60.625 51.671875 -58.375 C 53.847656 -56.125 55.515625 -53.445312 56.671875 -50.34375 C 57.828125 -47.238281 58.40625 -43.847656 58.40625 -40.171875 L 58.40625 0 L 49.59375 0 C 47.78125 0 46.40625 -0.242188 45.46875 -0.734375 C 44.539062 -1.234375 43.769531 -2.269531 43.15625 -3.84375 L 41.78125 -7.375 C 40.175781 -6.007812 38.628906 -4.8125 37.140625 -3.78125 C 35.648438 -2.75 34.109375 -1.867188 32.515625 -1.140625 C 30.921875 -0.421875 29.222656 0.109375 27.421875 0.453125 C 25.628906 0.804688 23.640625 0.984375 21.453125 0.984375 C 18.515625 0.984375 15.847656 0.601562 13.453125 -0.15625 C 11.054688 -0.914062 9.019531 -2.039062 7.34375 -3.53125 C 5.675781 -5.019531 4.382812 -6.867188 3.46875 -9.078125 C 2.5625 -11.296875 2.109375 -13.847656 2.109375 -16.734375 C 2.109375 -19.054688 2.6875 -21.40625 3.84375 -23.78125 C 5 -26.15625 7.003906 -28.320312 9.859375 -30.28125 C 12.710938 -32.25 16.554688 -33.894531 21.390625 -35.21875 C 26.222656 -36.539062 32.320312 -37.285156 39.6875 -37.453125 L 39.6875 -40.171875 C 39.6875 -43.929688 38.910156 -46.648438 37.359375 -48.328125 C 35.804688 -50.003906 33.601562 -50.84375 30.75 -50.84375 C 28.476562 -50.84375 26.617188 -50.59375 25.171875 -50.09375 C 23.722656 -49.601562 22.429688 -49.046875 21.296875 -48.421875 C 20.160156 -47.796875 19.054688 -47.234375 17.984375 -46.734375 C 16.910156 -46.242188 15.628906 -46 14.140625 -46 C 12.816406 -46 11.695312 -46.328125 10.78125 -46.984375 C 9.875 -47.648438 9.132812 -48.441406 8.5625 -49.359375 Z M 5.078125 -55.359375 "/></g></g></g><g fill="#000000" fill-opacity="1"><g transform="translate(364.56719, 414.750002)"><g><path d="M 25.734375 -92.8125 L 25.734375 0 L 6.515625 0 L 6.515625 -92.8125 Z M 25.734375 -92.8125 "/></g></g></g><g fill="#000000" fill-opacity="1"><g transform="translate(396.806157, 414.750002)"><g><path d="M 25.734375 -92.8125 L 25.734375 -40.796875 L 28.578125 -40.796875 C 29.773438 -40.796875 30.679688 -40.96875 31.296875 -41.3125 C 31.921875 -41.664062 32.546875 -42.257812 33.171875 -43.09375 L 45.328125 -61.1875 C 46.066406 -62.226562 46.910156 -63.003906 47.859375 -63.515625 C 48.816406 -64.035156 50.035156 -64.296875 51.515625 -64.296875 L 69.125 -64.296875 L 52.515625 -41.421875 C 50.941406 -39.347656 49.082031 -37.648438 46.9375 -36.328125 C 47.882812 -35.628906 48.75 -34.8125 49.53125 -33.875 C 50.320312 -32.945312 51.066406 -31.90625 51.765625 -30.75 L 69.875 0 L 52.515625 0 C 51.066406 0 49.828125 -0.234375 48.796875 -0.703125 C 47.765625 -1.179688 46.894531 -2.019531 46.1875 -3.21875 L 34.03125 -25.984375 C 33.457031 -27.015625 32.859375 -27.679688 32.234375 -27.984375 C 31.617188 -28.296875 30.691406 -28.453125 29.453125 -28.453125 L 25.734375 -28.453125 L 25.734375 0 L 6.515625 0 L 6.515625 -92.8125 Z M 25.734375 -92.8125 "/></g></g></g></svg>